<svg width="207" height="230" viewBox="0 0 207 230" fill="none" xmlns="http://www.w3.org/2000/svg">
<path fill-rule="evenodd" clip-rule="evenodd" d="M120.165 21.2016C116.626 12.7017 110.818 5.38308 103.499 0C96.1795 5.38307 90.3721 12.7018 86.8326 21.2016C92.4876 25.173 97.3882 30.4099 101.071 36.7887C101.976 38.3566 102.785 39.9538 103.499 41.5733C104.213 39.9538 105.022 38.3566 105.927 36.7887C109.61 30.4099 114.51 25.173 120.165 21.2016ZM99.4856 57.6734C99.3354 59.7271 99.3158 61.7811 99.4237 63.8231L99.553 63.9342C99.6898 61.857 99.6689 59.764 99.4856 57.6734ZM107.429 63.6846C107.31 61.6897 107.336 59.6809 107.512 57.6743C107.656 59.6363 107.68 61.5985 107.587 63.5503L107.429 63.6846Z" fill="#5D866A"/>
<path fill-rule="evenodd" clip-rule="evenodd" d="M107.429 63.6846C107.31 61.6897 107.336 59.6809 107.512 57.6743C107.656 59.6363 107.68 61.5985 107.587 63.5503L107.429 63.6846ZM99.4856 57.6734C99.6689 59.764 99.6898 61.857 99.553 63.9342L99.4237 63.8231C99.3158 61.7811 99.3354 59.7271 99.4856 57.6734Z" fill="#5D866A"/>
<path fill-rule="evenodd" clip-rule="evenodd" d="M99.4856 57.6734C99.3354 59.7271 99.3158 61.7811 99.4237 63.8231L99.553 63.9342C99.6898 61.857 99.6689 59.764 99.4856 57.6734Z" fill="white"/>
<path fill-rule="evenodd" clip-rule="evenodd" d="M99.4856 57.6734C99.3354 59.7271 99.3158 61.7811 99.4237 63.8231L99.553 63.9342C99.6898 61.857 99.6689 59.764 99.4856 57.6734ZM107.512 57.6743C107.336 59.6809 107.31 61.6897 107.429 63.6846L107.587 63.5503C107.68 61.5985 107.656 59.6363 107.512 57.6743Z" fill="#5D866A"/>
<path fill-rule="evenodd" clip-rule="evenodd" d="M107.587 63.5503L107.429 63.6846C107.31 61.6897 107.336 59.6809 107.512 57.6743C107.656 59.6363 107.68 61.5985 107.587 63.5503Z" fill="white"/>
<path fill-rule="evenodd" clip-rule="evenodd" d="M84.2538 29.263C79.7995 25.7023 74.6813 23.146 69.2612 21.6926C67.0892 29.8047 67.3944 38.5664 70.4977 46.7616C72.3692 47.3977 74.1859 48.1055 75.941 48.8652C79.0219 50.1988 81.9294 51.6993 84.6306 53.2678C89.7555 56.2438 94.1382 59.465 97.5543 62.2578C98.2126 62.796 98.8363 63.3193 99.4237 63.8231C99.3158 61.7811 99.3354 59.7271 99.4856 57.6734C98.9791 51.8973 97.2323 46.1399 94.1428 40.7887C91.5097 36.2281 88.1337 32.3645 84.2538 29.263Z" fill="#5D866A"/>
<path fill-rule="evenodd" clip-rule="evenodd" d="M112.856 40.7882C109.766 46.1398 108.019 51.8977 107.512 57.6743C107.336 59.6809 107.31 61.6897 107.429 63.6846L107.587 63.5503C108.086 63.1291 108.609 62.6951 109.156 62.251C112.649 59.4134 117.146 56.1334 122.406 53.1182C125.05 51.6027 127.887 50.1542 130.887 48.8623C132.703 48.0805 134.583 47.3537 136.522 46.7034C139.605 38.525 139.903 29.7856 137.736 21.6926C132.316 23.146 127.198 25.7023 122.744 29.2629C118.865 32.3644 115.489 36.2278 112.856 40.7882Z" fill="#5D866A"/>
<path fill-rule="evenodd" clip-rule="evenodd" d="M107.859 72.7158C108.131 72.4544 108.43 72.1712 108.754 71.8688C109.997 70.7101 111.619 69.2687 113.569 67.6846C114.914 66.5924 116.409 65.4372 118.038 64.2629C121.817 61.5394 126.319 58.7136 131.344 56.336C132.103 55.9768 132.874 55.6278 133.656 55.291C136.623 54.0132 139.734 52.9174 142.955 52.0977C148.623 50.6549 154.633 50.067 160.801 50.8467C170.415 52.0618 180.716 56.6348 190.962 67.0449C201.18 77.4275 205.802 88.2476 206.792 98.9893C207.788 109.805 205.127 120.83 200.281 131.562C190.549 153.111 172.393 172.672 159.665 185.604C143.028 202.508 132.036 213.561 123.446 220.425C114.94 227.221 109.281 229.5 103.323 229.5C97.3753 229.5 91.8086 227.23 83.3902 220.436C74.8819 213.568 63.9784 202.515 47.3346 185.604C34.6057 172.672 16.4499 153.111 6.71835 131.562C1.87189 120.83 -0.78918 109.805 0.207611 98.9893C1.19762 88.2476 5.81899 77.4275 16.0377 67.0449C26.2858 56.6326 36.5656 52.0612 46.1441 50.8467C52.3435 50.0606 58.3769 50.6655 64.0601 52.1354C67.2118 52.9505 70.2558 54.0316 73.1607 55.2891C74.0399 55.6696 74.9047 56.0657 75.7542 56.4744C80.8317 58.9176 85.3619 61.8159 89.1346 64.585C90.5793 65.6455 91.9129 66.687 93.1236 67.6768C95.0076 69.217 96.5825 70.6226 97.8027 71.7643C98.1646 72.1029 98.4952 72.4183 98.7935 72.707C99.4452 73.3379 99.9412 73.8411 100.269 74.1807C100.433 74.3504 100.555 74.4791 100.633 74.5625L100.672 74.6038L100.701 74.6358L100.723 74.6592L100.732 74.6684L101.462 75.4702L103.313 77.5029L105.705 74.8963L105.903 74.6807C105.906 74.6772 105.914 74.6677 105.92 74.6621C105.929 74.652 105.943 74.6375 105.959 74.6202L106.005 74.5713C106.084 74.4878 106.207 74.3589 106.372 74.1895C106.702 73.8497 107.202 73.3469 107.859 72.7158ZM127.5 159C131.918 159 135.5 155.418 135.5 151C135.5 146.582 131.918 143 127.5 143C123.081 143 119.5 146.582 119.5 151C119.5 155.418 123.081 159 127.5 159ZM111.5 151C111.5 155.418 107.918 159 103.5 159C99.0813 159 95.4996 155.418 95.4996 151C95.4996 146.582 99.0813 143 103.5 143C107.918 143 111.5 146.582 111.5 151ZM103.5 136C107.918 136 111.5 132.418 111.5 128C111.5 123.582 107.918 120 103.5 120C99.0813 120 95.4996 123.582 95.4996 128C95.4996 132.418 99.0813 136 103.5 136ZM135.5 128C135.5 132.418 131.918 136 127.5 136C123.081 136 119.5 132.418 119.5 128C119.5 123.582 123.081 120 127.5 120C131.918 120 135.5 123.582 135.5 128ZM127.5 113C131.918 113 135.5 109.418 135.5 105C135.5 100.582 131.918 97 127.5 97C123.081 97 119.5 100.582 119.5 105C119.5 109.418 123.081 113 127.5 113ZM111.5 105C111.5 109.418 107.918 113 103.5 113C99.0813 113 95.4996 109.418 95.4996 105C95.4996 100.582 99.0813 97 103.5 97C107.918 97 111.5 100.582 111.5 105ZM79.4996 113C83.9179 113 87.4996 109.418 87.4996 105C87.4996 100.582 83.9179 97 79.4996 97C75.0813 97 71.4996 100.582 71.4996 105C71.4996 109.418 75.0813 113 79.4996 113ZM87.4996 128C87.4996 132.418 83.9179 136 79.4996 136C75.0813 136 71.4996 132.418 71.4996 128C71.4996 123.582 75.0813 120 79.4996 120C83.9179 120 87.4996 123.582 87.4996 128ZM79.4996 159C83.9179 159 87.4996 155.418 87.4996 151C87.4996 146.582 83.9179 143 79.4996 143C75.0813 143 71.4996 146.582 71.4996 151C71.4996 155.418 75.0813 159 79.4996 159ZM111.5 174C111.5 178.418 107.918 182 103.5 182C99.0813 182 95.4996 178.418 95.4996 174C95.4996 169.582 99.0813 166 103.5 166C107.918 166 111.5 169.582 111.5 174ZM196.075 98.2059C197.566 98.3625 197.36 90.4188 192.915 82.656C188.469 74.8931 181.098 71.9368 179.955 72.5124C179.42 72.7815 180.322 73.8484 181.888 75.7013C183.672 77.8123 186.318 80.9436 188.686 85.0777C190.556 88.3433 191.896 91.1572 192.933 93.3328C194.359 96.3283 195.211 98.1152 196.075 98.2059Z" fill="#D86060"/>
</svg>
